<svg xmlns="http://www.w3.org/2000/svg" width="180" height="180" viewBox="0 0 180 180" fill="none">
  <rect width="180" height="180" rx="45" fill="#1e3a6d"/>
  <path d="M90 56C70.12 56 54 72.12 54 92C54 111.88 70.12 128 90 128C109.88 128 126 111.88 126 92C126 72.12 109.88 56 90 56ZM90 65C105.46 65 118 77.54 118 93C118 108.46 105.46 121 90 121C74.54 121 62 108.46 62 93C62 77.54 74.54 65 90 65Z" fill="white"/>
  <path d="M90 74C79.5 74 71 82.5 71 93C71 103.5 79.5 112 90 112C100.5 112 109 103.5 109 93C109 82.5 100.5 74 90 74ZM90 83C95.52 83 100 87.48 100 93C100 98.52 95.52 103 90 103C84.48 103 80 98.52 80 93C80 87.48 84.48 83 90 83Z" fill="white"/>
</svg> 