<svg xmlns="http://www.w3.org/2000/svg" width="192" height="192" viewBox="0 0 192 192" fill="none">
  <rect width="192" height="192" fill="#1e3a6d"/>
  <path d="M96 60C74.46 60 57 77.46 57 99C57 120.54 74.46 138 96 138C117.54 138 135 120.54 135 99C135 77.46 117.54 60 96 60ZM96 69C112.57 69 126 82.43 126 99C126 115.57 112.57 129 96 129C79.43 129 66 115.57 66 99C66 82.43 79.43 69 96 69Z" fill="white"/>
  <path d="M96 78C84.4 78 75 87.4 75 99C75 110.6 84.4 120 96 120C107.6 120 117 110.6 117 99C117 87.4 107.6 78 96 78ZM96 87C102.63 87 108 92.37 108 99C108 105.63 102.63 111 96 111C89.37 111 84 105.63 84 99C84 92.37 89.37 87 96 87Z" fill="white"/>
</svg> 